<?xml version="1.0" encoding="UTF-8" standalone="no"?>
<!-- Created with Inkscape (http://www.inkscape.org/) -->

<svg
   width="256"
   height="256"
   viewBox="0 0 67.733331 67.733331"
   version="1.1"
   id="svg5"
   inkscape:export-filename="\\wsl$\Ubuntu-20.04\home\daniel\projects\cryptography-primer.info\docs\images\favicon.png"
   inkscape:export-xdpi="6.0000005"
   inkscape:export-ydpi="6.0000005"
   inkscape:version="1.1.1 (3bf5ae0d25, 2021-09-20)"
   sodipodi:docname="favicon.svg"
   xmlns:inkscape="http://www.inkscape.org/namespaces/inkscape"
   xmlns:sodipodi="http://sodipodi.sourceforge.net/DTD/sodipodi-0.dtd"
   xmlns="http://www.w3.org/2000/svg"
   xmlns:svg="http://www.w3.org/2000/svg">
  <sodipodi:namedview
     id="namedview7"
     pagecolor="#ffffff"
     bordercolor="#666666"
     borderopacity="1.0"
     inkscape:pageshadow="2"
     inkscape:pageopacity="0.0"
     inkscape:pagecheckerboard="0"
     inkscape:document-units="mm"
     showgrid="false"
     width="209mm"
     units="px"
     inkscape:zoom="1.4823793"
     inkscape:cx="229.0237"
     inkscape:cy="135.25553"
     inkscape:window-width="1920"
     inkscape:window-height="1017"
     inkscape:window-x="-8"
     inkscape:window-y="-8"
     inkscape:window-maximized="1"
     inkscape:current-layer="layer1" />
  <defs
     id="defs2" />
  <g
     inkscape:label="Ebene 1"
     inkscape:groupmode="layer"
     id="layer1">
    <rect
       style="fill:#4051b5;fill-opacity:1;fill-rule:evenodd;stroke:#4051b5;stroke-width:1.5101;stroke-miterlimit:4;stroke-dasharray:none;stroke-opacity:1"
       id="rect31-3"
       width="66.223228"
       height="66.223236"
       x="0.75504887"
       y="0.75504971"
       ry="13.921874"
       rx="0" />
    <rect
       style="fill:none;fill-rule:evenodd;stroke:#ffffff;stroke-width:3.226;stroke-miterlimit:4;stroke-dasharray:none;stroke-opacity:1"
       id="rect159"
       width="39.861832"
       height="44.887142"
       x="13.935751"
       y="5.4186659"
       rx="19.930916"
       ry="20.015265" />
    <rect
       style="fill:#4051b5;fill-opacity:1;fill-rule:evenodd;stroke:#4051b5;stroke-width:0.85231;stroke-miterlimit:4;stroke-dasharray:none;stroke-opacity:1"
       id="rect31"
       width="66.88102"
       height="20.887953"
       x="0.42615181"
       y="27.678238"
       ry="0"
       rx="0" />
    <rect
       style="fill:#4051b5;fill-opacity:1;fill-rule:evenodd;stroke:#4051b5;stroke-width:0.7595;stroke-miterlimit:4;stroke-dasharray:none;stroke-opacity:1"
       id="rect31-4"
       width="52.87347"
       height="20.980762"
       x="7.4299316"
       y="38.414665"
       ry="0"
       rx="0" />
    <g
       aria-label="CP"
       transform="scale(1.0134086,0.98676881)"
       id="text1996"
       style="font-weight:bold;font-size:49.2585px;line-height:1.25;font-family:'Bell MT';-inkscape-font-specification:'Bell MT Bold';fill:#ffffff;stroke-width:1.23147">
      <path
         d="m 28.379676,34.382423 q 0.505092,-0.625352 1.058288,-1.395016 0.649404,-0.938028 1.08234,-0.938028 0.48104,0 0.625352,0.24052 0.144312,0.24052 0.24052,1.491224 l 0.48104,7.504225 0.0481,0.96208 q 0,0.96208 -0.769664,0.96208 -0.505092,0 -0.817768,-0.793716 -0.986132,-2.549512 -3.559696,-5.652221 -2.549512,-3.12676 -6.445936,-3.12676 -2.886241,0 -4.858505,1.68364 -1.948212,1.659588 -3.054604,4.569881 -1.08234,2.910292 -1.08234,6.97508 0,6.951029 3.054604,11.063921 3.054604,4.08884 7.600433,4.08884 4.93066,0 9.043552,-5.964896 0.505092,-0.72156 0.96208,-0.72156 0.769664,0 0.769664,0.769664 0,1.587432 -3.800216,5.05092 -3.776164,3.463488 -9.476488,3.463488 -7.552329,0 -11.9297932,-4.666088 -4.3774643,-4.666088 -4.3774643,-11.472805 0,-6.782664 4.4015163,-11.761429 4.4255682,-5.002816 11.1601282,-5.002816 4.738245,0 9.644853,2.669772 z"
         id="path63707" />
      <path
         d="m 46.154105,49.102248 -0.02405,9.139761 q 0,2.88624 0.817768,3.752112 0.817768,0.84182 2.477357,0.889924 1.106392,0.02405 1.395016,0.192416 0.288624,0.144312 0.288624,0.577248 0,0.625352 -1.395016,0.625352 -0.625352,0 -2.910293,-0.144312 -3.078656,-0.168364 -4.305308,-0.168364 -1.346912,0 -3.704008,0.168364 -1.948212,0.144312 -2.838136,0.144312 -0.769664,0 -0.769664,-0.673456 0,-0.529144 1.32286,-0.72156 1.32286,-0.192416 1.876056,-0.673456 0.553196,-0.505092 0.793716,-1.731744 0.264572,-1.250704 0.288624,-6.6143 0.02405,-5.387649 0.02405,-9.476489 l -0.02405,-7.576381 q 0,-1.539328 -0.745612,-2.453304 -0.745612,-0.938028 -2.621668,-0.938028 -0.84182,0 -0.84182,-0.673456 0,-0.793716 1.491224,-0.793716 l 0.625352,0.02405 q 1.346912,0.07216 3.12676,0.07216 l 9.813217,-0.144312 q 7.45612,0 10.390464,2.236836 2.958396,2.236836 2.958396,6.229469 0,3.992632 -3.174864,6.421884 -3.150812,2.4052 -10.318308,2.4052 -1.659589,0 -4.016685,-0.09621 z m 0,-1.707692 q 1.370964,0.12026 2.116576,0.12026 3.824269,0 5.724377,-2.308992 1.900108,-2.308992 1.900108,-5.507908 0,-3.030553 -1.755796,-4.545829 -1.731744,-1.515276 -4.281256,-1.515276 -1.322861,0 -3.704009,0.408884 z"
         id="path63709" />
    </g>
  </g>
</svg>
